<?xml version="1.0" encoding="UTF-8" standalone="no"?>
<svg width="80px" height="80px" viewBox="0 0 80 80" version="1.1" xmlns="http://www.w3.org/2000/svg" xmlns:xlink="http://www.w3.org/1999/xlink" xmlns:sketch="http://www.bohemiancoding.com/sketch/ns">
    <!-- Generator: Sketch 3.3.3 (12072) - http://www.bohemiancoding.com/sketch -->
    <title>frontend-developer</title>
    <desc>Created with Sketch.</desc>
    <defs>
        <filter x="-50%" y="-50%" width="200%" height="200%" filterUnits="objectBoundingBox" id="filter-1">
            <feOffset dx="1" dy="2" in="SourceAlpha" result="shadowOffsetOuter1"></feOffset>
            <feGaussianBlur stdDeviation="0" in="shadowOffsetOuter1" result="shadowBlurOuter1"></feGaussianBlur>
            <feColorMatrix values="0 0 0 0 0   0 0 0 0 0   0 0 0 0 0  0 0 0 0.07 0" in="shadowBlurOuter1" type="matrix" result="shadowMatrixOuter1"></feColorMatrix>
            <feMerge>
                <feMergeNode in="shadowMatrixOuter1"></feMergeNode>
                <feMergeNode in="SourceGraphic"></feMergeNode>
            </feMerge>
        </filter>
        <rect id="path-2" x="0" y="0.978" width="42" height="32" rx="2"></rect>
    </defs>
    <g id="UI-Kit" stroke="none" stroke-width="1" fill="none" fill-rule="evenodd" sketch:type="MSPage">
        <g id="frontend-developer" sketch:type="MSArtboardGroup">
            <g id="Group" sketch:type="MSLayerGroup" transform="translate(19.000000, 24.000000)">
                <mask id="mask-3" sketch:name="Rectangle 15" fill="white">
                    <use xlink:href="#path-2"></use>
                </mask>
                <use id="Rectangle-15" fill="#EAEEF0" filter="url(#filter-1)" sketch:type="MSShapeGroup" xlink:href="#path-2"></use>
                <rect id="Rectangle-16" fill="#FFFFFF" sketch:type="MSShapeGroup" mask="url(#mask-3)" x="0" y="7.978" width="42" height="25"></rect>
                <circle id="Oval-68-Copy-3" fill="#C9CED0" sketch:type="MSShapeGroup" mask="url(#mask-3)" cx="3.5" cy="4.478" r="1.5"></circle>
                <circle id="Oval-68-Copy-4" fill="#C9CED0" sketch:type="MSShapeGroup" mask="url(#mask-3)" cx="8.5" cy="4.478" r="1.5"></circle>
                <circle id="Oval-68-Copy-5" fill="#C9CED0" sketch:type="MSShapeGroup" mask="url(#mask-3)" cx="13.5" cy="4.478" r="1.5"></circle>
                <path d="M21,23.0000002 C19.3455,23.0000002 18,21.6545002 18,20.0000001 C18,18.346 19.3455,17 21,17 C22.6545,17 24,18.346 24,20.0000001 C24,21.6545002 22.6545,23.0000002 21,23.0000002 L21,23.0000002 Z M28.7913,18.11765 L27.9183,18.02585 C27.76755,17.4971 27.55605,16.98725 27.2874,16.50485 L27.84,15.82175 C28.27605,15.28355 28.23555,14.50775 27.7455,14.0177 L26.9823,13.2545 C26.5098,12.782 25.69845,12.7388 25.1778,13.15955 L24.4956,13.7126 C24.01275,13.44395 23.5038,13.23245 22.97415,13.0817 L22.88235,12.20825 C22.8099,11.5193 22.2321,11 21.53955,11 L20.46,11 C19.767,11 19.1901,11.5193 19.11765,12.2087 L19.0254,13.0817 C18.4962,13.23245 17.9868,13.44395 17.50485,13.7126 L16.8213,13.15955 C16.30245,12.7388 15.4902,12.782 15.0177,13.2545 L14.2545,14.0177 C13.7649,14.5073 13.72395,15.2831 14.15955,15.82175 L14.71215,16.50485 C14.44395,16.9868 14.23245,17.4962 14.08125,18.02585 L13.20825,18.11765 C12.5193,18.19055 12,18.7679 12,19.46045 L12,20.53955 C12,21.2321 12.5193,21.8099 13.2087,21.88235 L14.08125,21.97415 C14.23245,22.5038 14.44395,23.0132 14.71215,23.4956 L14.15955,24.17825 C13.72395,24.7169 13.7649,25.4927 14.2545,25.9823 L15.0177,26.7455 C15.4902,27.21845 16.30245,27.2621 16.8213,26.84045 L17.50485,26.2874 C17.9868,26.55605 18.4962,26.76755 19.0254,26.9183 L19.11765,27.79085 C19.18965,28.48025 19.767,29 20.46,29 L21.53955,29 C22.2321,29 22.8099,28.4807 22.88235,27.7913 L22.97415,26.9183 C23.5038,26.76755 24.01275,26.55605 24.4956,26.2874 L25.17825,26.84045 C25.4172,27.0344 25.71915,27.14105 26.0274,27.14105 C26.3883,27.14105 26.7276,27.00065 26.9823,26.7455 L27.7455,25.9823 C28.23555,25.49225 28.27605,24.7169 27.84,24.17825 L27.2874,23.4956 C27.55605,23.01275 27.76755,22.50335 27.9183,21.97415 L28.7913,21.88235 C29.4807,21.8099 30,21.2321 30,20.53955 L30,19.46045 C30,18.7679 29.4807,18.19055 28.7913,18.11765 L28.7913,18.11765 Z" id="Settings-Copy" fill="#EAEEF0" sketch:type="MSShapeGroup" mask="url(#mask-3)"></path>
            </g>
        </g>
    </g>
</svg>